<svg height="480pt" viewBox="0 0 480 480" width="480pt" xmlns="http://www.w3.org/2000/svg"><path d="m402.480469 312c-8.757813-.742188-17.4375 2.148438-24 8l-47.359375 43.441406c-1.667969 1.53125-3.90625 2.289063-6.160156 2.078125l-16-1.441406c-.375-14.652344-10.660157-27.179687-24.960938-30.398437v-7.519532c13.265625-4.015625 21.601562-17.128906 19.597656-30.84375s-13.738281-23.902344-27.597656-23.957031c-6.628906 0-12-5.371094-12-12 0-6.625 5.371094-12 12-12 3.289062.019531 6.429688 1.378906 8.695312 3.761719 2.261719 2.386718 3.457032 5.59375 3.304688 8.878906 0 4.417969 3.582031 8 8 8s8-3.582031 8-8c-.039062-12.363281-8.160156-23.242188-20-26.800781v-9.199219c0-4.417969-3.582031-8-8-8s-8 3.582031-8 8v9.199219c-13.265625 4.015625-21.601562 17.128906-19.597656 30.847656 2.003906 13.714844 13.738281 23.898437 27.597656 23.953125 6.628906 0 12 5.371094 12 12s-5.371094 12-12 12-12-5.371094-12-12c0-4.417969-3.582031-8-8-8s-8 3.582031-8 8c.039062 12.363281 8.160156 23.242188 20 26.800781v4.640625l-64-11.28125c-.449219-.078125-.910156-.078125-1.359375 0h-32v-8.160156c0-4.417969-3.582031-8-8-8h-42.640625v-8c0-4.417969-3.582031-8-8-8h-104c-4.417969 0-8 3.582031-8 8s3.582031 8 8 8h96v160h-96c-4.417969 0-8 3.582031-8 8s3.582031 8 8 8h104c4.417969 0 8-3.582031 8-8v-8h42c4.417969 0 8-3.582031 8-8v-120h31.601562l78.398438 13.761719c8.460938 1.65625 14.089844 9.722656 12.71875 18.238281v.480469c-.269531.667969-.457031 1.367187-.558594 2.078125-2.613281 7.355468-10.152344 11.75-17.839844 10.402344l-54.800781-9.679688c-4.351562-.777344-8.507812 2.125-9.28125 6.480469-.773437 4.351562 2.128907 8.507812 6.480469 9.277343l54.800781 9.679688c1.851563.316406 3.722657.476562 5.601563.480469 11.839844-.015625 22.703125-6.570313 28.238281-17.039063l18.5625 1.601563c6.585937.667969 13.160156-1.417969 18.15625-5.761719l47.363281-43.519531c3.179688-3.078125 7.496094-4.699219 11.917969-4.480469 4.40625.308594 8.488281 2.421875 11.28125 5.839844 5.246094 7.125 4.132813 17.089844-2.5625 22.878906l-70.398437 64.5625c-7.347657 6.839844-17 10.664062-27.039063 10.71875h-118.640625c-4.417969 0-8 3.582031-8 8s3.582031 8 8 8h118.640625c14.011719 0 27.511719-5.253906 37.839844-14.71875l70.398437-64.5625c13.117188-11.441406 14.914063-31.175781 4.082032-44.796875-5.464844-6.980469-13.636719-11.3125-22.480469-11.921875zm-248.480469 136h-34v-128h34zm0 0"/><path d="m64 416c4.417969 0 8-3.582031 8-8s-3.582031-8-8-8c-13.253906 0-24 10.746094-24 24s10.746094 24 24 24 24-10.746094 24-24c0-4.417969-3.582031-8-8-8s-8 3.582031-8 8-3.582031 8-8 8-8-3.582031-8-8 3.582031-8 8-8zm0 0"/><path d="m184 264v32c0 4.417969 3.582031 8 8 8s8-3.582031 8-8v-32c0-39.765625 32.234375-72 72-72h8c39.765625 0 72 32.234375 72 72v44.558594c0 4.417968 3.582031 8 8 8s8-3.582032 8-8v-28.558594h24v8c0 4.417969 3.582031 8 8 8s8-3.582031 8-8v-40h8c8.835938 0 16-7.164062 16-16v-16c0-8.835938-7.164062-16-16-16h-32c-8.835938 0-16 7.164062-16 16v16h-6c-6.941406-17.574219-19.296875-32.480469-35.28125-42.558594 8.71875-4.398437 13.902344-13.640625 13.113281-23.371094-.789062-9.734374-7.398437-18.015624-16.710937-20.949218 5.742187-7.113282 8.875-15.980469 8.878906-25.121094v-32c0-13.253906-10.746094-24-24-24-5.910156.011719-11.605469 2.207031-16 6.160156-9.109375-8.148437-22.890625-8.148437-32 0-4.394531-3.953125-10.089844-6.148437-16-6.160156-13.253906 0-24 10.746094-24 24v32c.003906 9.140625 3.136719 18.007812 8.878906 25.121094-9.3125 2.933594-15.921875 11.214844-16.710937 20.949218-.789063 9.730469 4.394531 18.972657 13.113281 23.371094-25.679688 16.085938-41.277344 44.253906-41.28125 74.558594zm200-48h32v16h-32zm-16 32h24v16h-24zm-132-160c0-4.417969 3.582031-8 8-8s8 3.582031 8 8 3.582031 8 8 8 8-3.582031 8-8 3.582031-8 8-8 8 3.582031 8 8 3.582031 8 8 8 8-3.582031 8-8 3.582031-8 8-8 8 3.582031 8 8v32c0 13.253906-10.746094 24-24 24h-32c-13.253906 0-24-10.746094-24-24zm0 88c-4.417969 0-8-3.582031-8-8s3.582031-8 8-8h80c4.417969 0 8 3.582031 8 8s-3.582031 8-8 8zm0 0"/><path d="m478.398438 91.199219-48-64c-1.507813-2.011719-3.878907-3.199219-6.398438-3.199219s-4.890625 1.1875-6.398438 3.199219l-48 64c-1.820312 2.425781-2.113281 5.667969-.757812 8.378906s4.125 4.421875 7.15625 4.421875h16v40c0 4.417969 3.582031 8 8 8s8-3.582031 8-8v-48c0-4.417969-3.582031-8-8-8h-8l32-42.640625 32 42.640625h-8c-4.417969 0-8 3.582031-8 8v48c0 4.417969 3.582031 8 8 8s8-3.582031 8-8v-40h16c3.03125 0 5.800781-1.710938 7.15625-4.421875s1.0625-5.953125-.757812-8.378906zm0 0"/><path d="m40 112h32v72c0 4.417969 3.582031 8 8 8s8-3.582031 8-8v-80c0-4.417969-3.582031-8-8-8h-24l56-74.640625 56 74.640625h-24c-4.417969 0-8 3.582031-8 8v80c0 4.417969 3.582031 8 8 8s8-3.582031 8-8v-72h32c3.03125 0 5.800781-1.710938 7.15625-4.421875s1.0625-5.953125-.757812-8.378906l-72-96c-1.507813-2.011719-3.878907-3.199219-6.398438-3.199219s-4.890625 1.1875-6.398438 3.199219l-72 96c-1.820312 2.425781-2.113281 5.667969-.757812 8.378906s4.125 4.421875 7.15625 4.421875zm0 0"/><path d="m104 128v96c0 4.417969 3.582031 8 8 8s8-3.582031 8-8v-96c0-4.417969-3.582031-8-8-8s-8 3.582031-8 8zm0 0"/></svg>