<svg id="Capa_1" enable-background="new 0 0 512 512" height="512" viewBox="0 0 512 512" width="512" xmlns="http://www.w3.org/2000/svg"><g><path d="m446.75 160.539h14.967v-29.98h-23.27v-24.983h-29.98v24.983h-47.433c1.737-7.632 2.658-15.57 2.658-23.72 0-58.912-47.928-106.839-106.839-106.839s-106.839 47.927-106.839 106.839c0 8.15.921 16.088 2.658 23.72h-45.727v-24.983h-29.98v24.983h-26.974v29.98h18.217l-67.614 145.297c0 49.436 40.219 89.655 89.656 89.655 49.436 0 89.655-40.219 89.655-89.655l-64.656-145.298h49.274c15.98 27.369 43.774 47.033 76.341 51.941v209.037h-79.903c-24.797 0-44.97 20.173-44.97 44.97v15.533h-31.023v29.981h343.771v-29.98h-32.455v-15.533c0-24.797-20.173-44.97-44.97-44.97h-80.47v-208.756c33.427-4.391 62.034-24.294 78.34-52.222h50.526l-67.615 145.298c0 49.436 40.219 89.655 89.656 89.655 49.436 0 89.655-40.219 89.655-89.655zm-355.105 20.511 49.977 109.796h-102.292zm-1.395 184.461c-27.73 0-51.095-19.013-57.762-44.685h115.522c-6.668 25.672-30.032 44.685-57.76 44.685zm276.054 100.976v15.533h-220.333v-15.533c0-8.266 6.724-14.99 14.99-14.99h190.353c8.266 0 14.99 6.725 14.99 14.99zm-109.451-282.79c-42.38 0-76.859-34.479-76.859-76.858s34.479-76.859 76.859-76.859 76.859 34.479 76.859 76.859-34.479 76.858-76.859 76.858zm166.294-2.647 49.977 109.796h-102.292zm-1.396 184.461c-27.73 0-51.095-19.013-57.762-44.685h115.522c-6.668 25.672-30.032 44.685-57.76 44.685z"/><path d="m248.84 90.531c0-2.668 2.445-4.891 10.114-4.891 6.78 0 14.004 1.89 21.674 5.78l7.891-19.006c-6.336-3.557-14.338-5.669-22.563-6.446v-11.894h-15.672v12.116c-18.228 2.556-27.342 13.115-27.342 25.675 0 29.009 43.014 21.118 43.014 30.899 0 2.668-2.667 4.224-10.114 4.224-8.559 0-18.339-2.779-25.675-7.114l-8.447 19.117c6.668 4.113 17.449 7.113 28.564 7.781v11.782h15.672v-12.338c17.228-3.001 25.898-13.448 25.898-25.453 0-28.676-43.014-20.896-43.014-30.232z"/></g></svg>