<svg xmlns="http://www.w3.org/2000/svg" width="37.5" height="37.5" viewBox="0 0 37.5 37.5">
  <g id="account" transform="translate(0.5 0.5)">
    <path id="Path_22888" data-name="Path 22888" d="M36.5,18.25A18.25,18.25,0,1,0,18.25,36.5,18.24,18.24,0,0,0,36.5,18.25ZM18.25,2.139A16.114,16.114,0,0,1,31.6,27.27a18.243,18.243,0,0,0-26.7,0A16.114,16.114,0,0,1,18.25,2.139ZM6.232,28.979a16.107,16.107,0,0,1,24.037,0A16.1,16.1,0,0,1,6.232,28.979Zm0,0" fill="#3170b1" stroke="#3170b1" stroke-width="1"/>
    <path id="Path_22889" data-name="Path 22889" d="M172.336,75.784a6.343,6.343,0,0,0,6.336-6.336V67.336a6.336,6.336,0,1,0-12.672,0v2.112A6.343,6.343,0,0,0,172.336,75.784Zm-4.224-8.448a4.224,4.224,0,1,1,8.448,0v2.112a4.224,4.224,0,1,1-8.448,0Zm0,0" transform="translate(-154.314 -56.706)" fill="#3170b1" stroke="#3170b1" stroke-width="1"/>
  </g>
</svg>
