<svg xmlns="http://www.w3.org/2000/svg" width="35.911" height="38.455" viewBox="0 0 35.911 38.455">
  <g id="cell-phone" transform="translate(1.501 1.667)">
    <path id="phone-call" d="M22.405,7.744a8.156,8.156,0,0,1,6.2,6.66M22.405,1c6.556.783,11.733,6.341,12.469,13.387M33.306,27.841V32.9a3.493,3.493,0,0,1-1.016,2.5,3,3,0,0,1-2.4.874A29.682,29.682,0,0,1,16.351,31.1,31.831,31.831,0,0,1,6.94,20.979,35.01,35.01,0,0,1,2.125,6.361a3.534,3.534,0,0,1,.807-2.577,3.042,3.042,0,0,1,2.314-1.1H9.951a3.217,3.217,0,0,1,3.137,2.9,22.987,22.987,0,0,0,1.1,4.738,3.557,3.557,0,0,1-.706,3.557l-1.992,2.141A26.116,26.116,0,0,0,20.9,26.138L22.891,24a2.98,2.98,0,0,1,3.309-.759,19,19,0,0,0,4.407,1.18,3.31,3.31,0,0,1,2.7,3.423Z" transform="translate(-2.112 -1)" fill="none" stroke="#3170b1" stroke-linecap="round" stroke-linejoin="round" stroke-width="3"/>
  </g>
</svg>
