<svg xmlns="http://www.w3.org/2000/svg" width="59" height="43" viewBox="0 0 59 43">
  <g id="credit-card" transform="translate(1.5 1.5)">
    <rect id="Layer-1" width="56" height="40" rx="6" fill="none" stroke="#1d75b8" stroke-linecap="round" stroke-linejoin="round" stroke-width="3"/>
    <path id="Layer-2" d="M65.927,55.624A5.7,5.7,0,0,1,69.468,54.4a5.581,5.581,0,1,1,0,11.16,5.7,5.7,0,0,1-3.541-1.224,5.7,5.7,0,0,1-3.541,1.224,5.581,5.581,0,1,1,0-11.16,5.7,5.7,0,0,1,3.541,1.224Z" transform="translate(-24.914 -32.08)" fill="none" stroke="#1d75b8" stroke-linecap="round" stroke-linejoin="round" stroke-width="3" fill-rule="evenodd"/>
    <path id="Layer-3" d="M12,43h9.3" transform="translate(-6.187 -27.306)" fill="none" stroke="#1d75b8" stroke-linecap="round" stroke-linejoin="round" stroke-width="3" fill-rule="evenodd"/>
    <path id="Layer-4" d="M34,43h9.3" transform="translate(-15.4 -27.306)" fill="none" stroke="#1d75b8" stroke-linecap="round" stroke-linejoin="round" stroke-width="3" fill-rule="evenodd"/>
    <path id="Layer-5" d="M56,43h9.3" transform="translate(-24.612 -27.306)" fill="none" stroke="#1d75b8" stroke-linecap="round" stroke-linejoin="round" stroke-width="3" fill-rule="evenodd"/>
    <path id="Layer-6" d="M11.6,71.68h6.7" transform="translate(-6.02 -39.316)" fill="none" stroke="#1d75b8" stroke-linecap="round" stroke-linejoin="round" stroke-width="3" fill-rule="evenodd"/>
    <path id="Layer-7" d="M28.88,71.68h6.7" transform="translate(-13.256 -39.316)" fill="none" stroke="#1d75b8" stroke-linecap="round" stroke-linejoin="round" stroke-width="3" fill-rule="evenodd"/>
    <path id="Layer-8" d="M11.6,62.08H28.34" transform="translate(-6.02 -35.296)" fill="none" stroke="#1d75b8" stroke-linecap="round" stroke-linejoin="round" stroke-width="3" fill-rule="evenodd"/>
    <path id="Layer-9" d="M11.6,27.52h5.022" transform="translate(-6.02 -20.824)" fill="none" stroke="#1d75b8" stroke-linecap="round" stroke-linejoin="round" stroke-width="3" fill-rule="evenodd"/>
  </g>
</svg>
