<svg xmlns="http://www.w3.org/2000/svg" width="35.287" height="35.28" viewBox="0 0 35.287 35.28">
  <g id="equipment_" data-name="equipment " transform="translate(-2.294 -2.302)">
    <path id="Path_22996" data-name="Path 22996" d="M36.762,32.4a5.635,5.635,0,0,0-7.225-6.489L13.971,10.343a5.644,5.644,0,0,0-6.43-7.248.59.59,0,0,0-.3.988L9.581,6.421l-.69,2.473-2.5.666L4.057,7.222a.643.643,0,0,0-.45-.14.585.585,0,0,0-.514.462,5.654,5.654,0,0,0,7.26,6.43L25.907,29.54a5.651,5.651,0,0,0,6.43,7.248.59.59,0,0,0,.3-.988L30.3,33.463l.69-2.473,2.5-.666,2.338,2.338a.754.754,0,0,0,.415.175h0A.585.585,0,0,0,36.762,32.4Zm-3.256-3.291-3.145.842a.585.585,0,0,0-.415.415L29.1,33.509a.585.585,0,0,0,.152.585l1.631,1.631a4.489,4.489,0,0,1-3.776-6.1.52.52,0,0,0,0-.339.456.456,0,0,0-.146-.3L10.919,12.927a.52.52,0,0,0-.31-.152.526.526,0,0,0-.327,0A4.484,4.484,0,0,1,4.156,8.993l1.625,1.631a.585.585,0,0,0,.415.17.672.672,0,0,0,.152,0l3.145-.842a.585.585,0,0,0,.415-.415l.842-3.145a.585.585,0,0,0-.152-.585L8.99,4.159a4.489,4.489,0,0,1,3.776,6.1.52.52,0,0,0,0,.339.456.456,0,0,0,.146.3L28.959,26.986a.485.485,0,0,0,.3.146.52.52,0,0,0,.339,0,4.484,4.484,0,0,1,6.126,3.759L34.1,29.26A.585.585,0,0,0,33.506,29.108Z" transform="translate(0 0)" fill="#3170b1" stroke="#3170b1" stroke-linecap="square" stroke-linejoin="bevel" stroke-width="1.3"/>
    <path id="Path_22997" data-name="Path 22997" d="M34.778,16.331a.585.585,0,0,0,.415-.175l4.595-4.595h0a.631.631,0,0,0,.146-.62A4.161,4.161,0,1,1,42.395,13.4a.643.643,0,0,0-.631.146h0l-4.595,4.595a.585.585,0,0,0,.824.824l4.361-4.355a5.344,5.344,0,0,0,5.261-8.891c-3.852-3.911-10.376,0-8.879,5.261l-4.367,4.367a.585.585,0,0,0,.409.982Z" transform="translate(-12.98 -0.481)" fill="#3170b1" stroke="#3170b1" stroke-width="1"/>
    <path id="Path_22998" data-name="Path 22998" d="M18.169,37.19l-4.595,4.595h0a.631.631,0,0,0-.146.631,4.161,4.161,0,1,1-2.461-2.461.631.631,0,0,0,.625-.146h0l4.595-4.595a.585.585,0,0,0-.824-.824L11,38.78A5.34,5.34,0,0,0,5.735,47.66c3.835,3.911,10.4,0,8.879-5.261l4.367-4.367a.585.585,0,1,0-.813-.842Z" transform="translate(-0.504 -12.993)" fill="#3170b1" stroke="#3170b1" stroke-width="1"/>
    <path id="Path_22999" data-name="Path 22999" d="M11.917,46.493l-1.876.5a.585.585,0,0,0-.415.415l-.5,1.876a.585.585,0,0,0,.152.585l1.374,1.374a.585.585,0,0,0,.585.152l1.853-.526a.585.585,0,0,0,.415-.415L14,48.58A.585.585,0,0,0,13.852,48l-1.374-1.374A.585.585,0,0,0,11.917,46.493Zm.544,3.338-1.228.327-.894-.894.327-1.228,1.228-.327.894.894Z" transform="translate(-2.547 -18.069)" fill="#3170b1" stroke="#3170b1" stroke-width="1"/>
    <path id="Path_23000" data-name="Path 23000" d="M48.05,14.135a.626.626,0,0,0,.146,0l2.268-.585a.585.585,0,0,0,.415-.415l.585-2.268a.585.585,0,0,0-.152-.585L49.675,8.6a.585.585,0,0,0-.585-.152l-2.268.585a.585.585,0,0,0-.415.415l-.585,2.268a.585.585,0,0,0,.152.585l1.66,1.66A.585.585,0,0,0,48.05,14.135ZM47.465,10.1l1.619-.433,1.169,1.169-.433,1.619L48.2,12.89,47.033,11.72Z" transform="translate(-17.794 -2.266)" fill="#3170b1" stroke="#3170b1" stroke-width="1"/>
  </g>
</svg>
