<svg xmlns="http://www.w3.org/2000/svg" width="41.734" height="40.8" viewBox="0 0 41.734 40.8">
  <g id="expiry-date" transform="translate(0.3 0.3)">
    <path id="Path_23003" data-name="Path 23003" d="M70.019,56.53a10.718,10.718,0,1,1-7.58,3.139,10.694,10.694,0,0,1,7.58-3.139Zm2.1,6.828a1.225,1.225,0,0,1,1.743,0,1.252,1.252,0,0,1,0,1.76l-2.1,2.134,2.107,2.138a1.246,1.246,0,0,1-.013,1.75,1.22,1.22,0,0,1-1.737,0l-2.094-2.121-2.1,2.128a1.222,1.222,0,0,1-1.743,0,1.252,1.252,0,0,1,0-1.76l2.1-2.134-2.107-2.138a1.246,1.246,0,0,1,.013-1.75,1.22,1.22,0,0,1,1.737,0l2.094,2.121,2.1-2.128Z" transform="translate(-39.305 -37.469)" fill="#3170b1" fill-rule="evenodd"/>
    <path id="Path_23004" data-name="Path 23004" d="M23.411,1.362A1.533,1.533,0,0,1,25.07,0a1.528,1.528,0,0,1,1.659,1.362V7.317A1.533,1.533,0,0,1,25.07,8.679a1.528,1.528,0,0,1-1.659-1.362V1.362ZM4.522,19.277c-.094,0-.179-.415-.179-.921s.074-.917.179-.917H9.054c.094,0,.179.415.179.917s-.074.921-.179.921Zm7.219,0c-.094,0-.179-.415-.179-.921s.074-.917.179-.917h4.532c.094,0,.179.415.179.917s-.074.921-.179.921Zm7.223,0c-.094,0-.179-.415-.179-.921s.074-.917.179-.917H23.5c.094,0,.179.411.179.914a13.647,13.647,0,0,0-1.308.924ZM4.532,24.548c-.094,0-.179-.415-.179-.921s.074-.921.179-.921H9.064c.094,0,.179.411.179.921s-.074.921-.179.921Zm7.219,0c-.094,0-.179-.415-.179-.921s.074-.921.179-.921h4.532c.094,0,.179.411.179.921s-.074.921-.179.921Zm-7.209,5.27c-.094,0-.179-.411-.179-.921s.074-.921.179-.921H9.07c.094,0,.179.415.179.921s-.074.921-.179.921Zm7.219,0c-.094,0-.179-.411-.179-.921s.074-.921.179-.921h4.532c.094,0,.179.415.179.921s-.074.921-.179.921ZM8.5,1.362A1.53,1.53,0,0,1,10.16,0a1.528,1.528,0,0,1,1.659,1.362V7.317A1.535,1.535,0,0,1,10.16,8.679,1.528,1.528,0,0,1,8.5,7.317V1.362ZM1.828,13.019H33.446V6.164a.816.816,0,0,0-.246-.59.861.861,0,0,0-.59-.246H29.578a.921.921,0,1,1,0-1.841H32.61A2.682,2.682,0,0,1,35.29,6.167V17.052a13.8,13.8,0,0,0-1.865-.5v-1.7H1.828V32.606a.822.822,0,0,0,.246.59.846.846,0,0,0,.59.246H17.689a13.892,13.892,0,0,0,.644,1.858H2.681A2.682,2.682,0,0,1,0,32.623V6.171A2.682,2.682,0,0,1,2.681,3.49H5.918a.921.921,0,0,1,0,1.841H2.681a.816.816,0,0,0-.59.246.846.846,0,0,0-.246.59v6.855H1.828v0ZM14.476,5.328a.921.921,0,0,1,0-1.841h6.171a.921.921,0,0,1,0,1.841H14.476Z" fill="#3170b1" stroke="#3170b1" stroke-width="0.6"/>
  </g>
</svg>
