<svg xmlns="http://www.w3.org/2000/svg" width="41.025" height="29.017" viewBox="0 0 41.025 29.017">
  <g id="Federal-ID" transform="translate(-210.659 -286.083)">
    <path id="id-badge" d="M0,3V31.817H40.825V3ZM38.423,29.416H2.4V5.4H38.423ZM6.153,28.242l-2.4-.053c.079-3.434,3.357-6.369,7.946-7.245v-.783a6.741,6.741,0,0,1-1.309-2.217,2.974,2.974,0,0,1-.958-1.239,2.4,2.4,0,0,1,.151-2.565c-.01-.178-.014-.353-.014-.521l0-.442c-.014-1.29-.038-3.41,2.231-3.8A2.974,2.974,0,0,1,14.625,7.81c2.7-.084,4.6.908,5.247,2.764a2.129,2.129,0,0,1-.134,1.549,2.417,2.417,0,0,0-.2,1.354,3.731,3.731,0,0,1,.007.749,2.56,2.56,0,0,1,.2,2.341,2.854,2.854,0,0,1-1.042,1.46,6.683,6.683,0,0,1-1.17,2.029v.905c4.584.9,7.752,3.773,7.831,7.224l-2.4.055c-.055-2.452-2.906-4.582-6.779-5.065l-1.052-.132v-4.1l.48-.36a4.039,4.039,0,0,0,1-1.828l.324-.826.178-1.515a3.036,3.036,0,0,0,.046-.644,4.807,4.807,0,0,1,.341-2.512c.012-.034.022-.055.029-.074-.5-.951-2.111-.992-2.812-.975-.665.026-.713.12-.843.367a1.871,1.871,0,0,1-1.53,1.148.708.708,0,0,0-.291.065,4.895,4.895,0,0,0-.086,1.364l0,.468a8.83,8.83,0,0,0,.07,1.071l.168,1.376.288.05.007.6a4.051,4.051,0,0,0,1.083,1.916l.516.358v4.051l-1.061.125c-3.871.454-6.83,2.637-6.885,5.079ZM36.022,15.007H24.014v-2.4H36.022Zm-2.4,4.8H24.014v-2.4H33.62Z" transform="translate(210.759 283.183)" fill="#3170b1" stroke="#3170b1" stroke-width="0.2"/>
  </g>
</svg>
