<svg xmlns="http://www.w3.org/2000/svg" width="32.77" height="41" viewBox="0 0 32.77 41">
  <g id="insurance" transform="translate(-14.856 -2.513)">
    <path id="Path_23001" data-name="Path 23001" d="M41.152,43.194v8.453a5.781,5.781,0,0,0,1.58,3.99A22.364,22.364,0,0,0,48.412,60l.355.191L49.122,60a22.307,22.307,0,0,0,5.684-4.363,5.781,5.781,0,0,0,1.58-3.99V43.194l-7.62-1.672Zm8.339,3.625a5.244,5.244,0,0,1,.615.114,3.414,3.414,0,0,1,.533.21l.146.068a.215.215,0,0,1,.109.241c-.073.187-.15.378-.228.569l-.118.3-.109-.064a2.609,2.609,0,0,0-.92-.337,2.338,2.338,0,0,0-1.148.032.9.9,0,0,0-.656.742.84.84,0,0,0,.373.906,6.982,6.982,0,0,0,.947.483,6.463,6.463,0,0,1,1.252.656,2.065,2.065,0,0,1,.906,2.086,2.1,2.1,0,0,1-1.375,1.717,3.672,3.672,0,0,1-.446.15l-.141.041V56.02H48.2V54.795c-.055-.009-.109-.018-.164-.023-.2-.027-.383-.05-.574-.091a3.208,3.208,0,0,1-1.016-.387.216.216,0,0,1-.1-.3c.059-.159.118-.319.173-.487l.118-.332.3.159a3.069,3.069,0,0,0,1.64.41,1.953,1.953,0,0,0,.629-.128,1.087,1.087,0,0,0,.7-.852,1.149,1.149,0,0,0-.455-1.07,3.945,3.945,0,0,0-1.02-.537,4.961,4.961,0,0,1-1.316-.742,1.859,1.859,0,0,1-.679-1.48,2.031,2.031,0,0,1,.774-1.571,2.609,2.609,0,0,1,1.052-.492l.077-.018V45.613h.984v1.18Z" transform="translate(-17.529 -26.003)" fill="#1d75b8"/>
    <path id="Path_23002" data-name="Path 23002" d="M43.34,6.193H38.4l-.5-2.824a1.086,1.086,0,0,0-1.061-.856h-11.2a1.086,1.086,0,0,0-1.061.856l-.506,2.824H19.141a4.294,4.294,0,0,0-4.286,4.29V39.223a4.294,4.294,0,0,0,4.286,4.29h24.2a4.294,4.294,0,0,0,4.286-4.29V10.484A4.294,4.294,0,0,0,43.34,6.193Zm1.576,33.03A1.58,1.58,0,0,1,43.34,40.8h-24.2a1.584,1.584,0,0,1-1.58-1.58V10.484a1.581,1.581,0,0,1,1.58-1.58h4.45v0l19.749,0a1.577,1.577,0,0,1,1.576,1.58Z" transform="translate(0 0)" fill="#3170b1"/>
  </g>
</svg>
