<svg xmlns="http://www.w3.org/2000/svg" width="30.584" height="40.5" viewBox="0 0 30.584 40.5">
  <g id="invoice" transform="translate(-63.767 0.5)">
    <g id="Group_1734" data-name="Group 1734" transform="translate(74.596 6.198)">
      <g id="Group_1733" data-name="Group 1733" transform="translate(0)">
        <path id="Path_22935" data-name="Path 22935" d="M203.444,87.771h-1.653a1.322,1.322,0,0,1,0-2.644H205.1a1.157,1.157,0,1,0,0-2.314h-1.322V81.491a1.157,1.157,0,0,0-2.314,0v1.338a3.636,3.636,0,0,0,.331,7.257h1.653a1.322,1.322,0,0,1,0,2.644h-3.306a1.157,1.157,0,1,0,0,2.314h1.322v1.322a1.157,1.157,0,0,0,2.314,0V95.028a3.636,3.636,0,0,0-.331-7.257Z" transform="translate(-198.155 -80.334)" fill="#306fb1" stroke="#3170b1" stroke-width="1"/>
      </g>
    </g>
    <g id="Group_1736" data-name="Group 1736" transform="translate(71.704 27.27)">
      <g id="Group_1735" data-name="Group 1735" transform="translate(0)">
        <path id="Path_22936" data-name="Path 22936" d="M174.219,353.467h-12.4a1.157,1.157,0,0,0,0,2.315h12.4a1.157,1.157,0,1,0,0-2.315Z" transform="translate(-160.667 -353.467)" fill="#306fb1" stroke="#3170b1" stroke-width="1"/>
      </g>
    </g>
    <g id="Group_1738" data-name="Group 1738" transform="translate(64.267)">
      <g id="Group_1737" data-name="Group 1737" transform="translate(0)">
        <path id="Path_22937" data-name="Path 22937" d="M92.694,0H65.424a1.157,1.157,0,0,0-1.157,1.157V34.934a1.158,1.158,0,0,0,.339.818l3.409,3.409a1.157,1.157,0,0,0,1.637,0l2.59-2.59,2.59,2.59a1.157,1.157,0,0,0,1.637,0l2.59-2.59,2.59,2.59a1.157,1.157,0,0,0,1.637,0l2.59-2.59,2.59,2.59a1.157,1.157,0,0,0,1.637,0l3.409-3.409a1.157,1.157,0,0,0,.339-.818V1.157A1.157,1.157,0,0,0,92.694,0ZM89.285,36.707l-2.59-2.59a1.157,1.157,0,0,0-1.637,0l-2.59,2.59-2.59-2.59a1.157,1.157,0,0,0-1.637,0l-2.59,2.59-2.59-2.59a1.157,1.157,0,0,0-1.637,0l-2.59,2.59-2.252-2.252V2.314H91.537V34.455h0Z" transform="translate(-64.267 0)" fill="#306fb1" stroke="#3170b1" stroke-width="1"/>
      </g>
    </g>
  </g>
</svg>
