<svg xmlns="http://www.w3.org/2000/svg" width="39.501" height="39.5" viewBox="0 0 39.501 39.5">
  <g id="manager" transform="translate(0 0)">
    <path id="Path_22885" data-name="Path 22885" d="M168.086,222.75a3.859,3.859,0,0,0,2.747-1.139,1.157,1.157,0,0,0-1.637-1.637,1.569,1.569,0,0,1-2.221,0,1.157,1.157,0,1,0-1.637,1.637A3.86,3.86,0,0,0,168.086,222.75Z" transform="translate(-152.27 -202.691)" fill="#3170b1"/>
    <path id="Path_22886" data-name="Path 22886" d="M39.1,29.86l-7.329-6.282a1.157,1.157,0,0,0-1.506,0l-3.307,2.834a10.451,10.451,0,0,0-5.738-1.724H20.83V23.131a8.882,8.882,0,0,0,3.782-6.158h.461A3.47,3.47,0,0,0,27.365,10.9a11.569,11.569,0,0,0-23.1,0,3.47,3.47,0,0,0,2.292,6.076h.461A8.882,8.882,0,0,0,10.8,23.131v1.557h-.386A10.427,10.427,0,0,0,0,35.1v3.24A1.157,1.157,0,0,0,1.157,39.5H36.414a1.157,1.157,0,0,0,1.157-1.157V31.6l.018.016A1.157,1.157,0,1,0,39.1,29.86Zm-14.023-15.2h-.386V12.344h.386a1.157,1.157,0,1,1,0,2.314ZM15.816,2.315a9.284,9.284,0,0,1,9.125,7.715H20.809a4.4,4.4,0,0,1-3.958-2.446,1.157,1.157,0,0,0-2.07,0,4.4,4.4,0,0,1-3.958,2.446H6.691a9.284,9.284,0,0,1,9.125-7.715ZM5.4,13.5a1.159,1.159,0,0,1,1.157-1.157h.386v2.314H6.558A1.159,1.159,0,0,1,5.4,13.5Zm3.857,2.314V12.344h1.564a6.7,6.7,0,0,0,4.993-2.207,6.7,6.7,0,0,0,4.993,2.207h1.564v3.472a6.558,6.558,0,1,1-13.115,0Zm6.558,8.872a8.841,8.841,0,0,0,2.7-.421v2.349a2.7,2.7,0,0,1-5.4,0V24.267A8.838,8.838,0,0,0,15.816,24.688ZM2.314,35.1a8.11,8.11,0,0,1,8.1-8.1h.4a5.013,5.013,0,0,0,10,0h.4A8.011,8.011,0,0,1,25.107,28L22.932,29.86a1.157,1.157,0,0,0,1.506,1.757l.018-.016v5.585H8.486V34.332a1.157,1.157,0,1,0-2.314,0v2.855H2.314Zm32.943,2.083H32.171V35.257a1.157,1.157,0,1,0-2.314,0v1.929H26.771V29.618l4.243-3.637,4.243,3.637Z" fill="#3170b1"/>
    <path id="Path_22887" data-name="Path 22887" d="M377,383.157a1.157,1.157,0,0,0,1.157,1.157H379.7a1.157,1.157,0,1,0,0-2.314h-1.543A1.157,1.157,0,0,0,377,383.157Z" transform="translate(-347.915 -352.529)" fill="#3170b1"/>
  </g>
</svg>
