<svg id="owner" xmlns="http://www.w3.org/2000/svg" width="38.136" height="40.993" viewBox="0 0 38.136 40.993">
  <path id="Path_22885" data-name="Path 22885" d="M167.979,222.868a3.6,3.6,0,0,0,2.652-1.182,1.265,1.265,0,0,0,0-1.7,1.063,1.063,0,0,0-1.58,0,1.441,1.441,0,0,1-2.144,0,1.063,1.063,0,0,0-1.58,0,1.265,1.265,0,0,0,0,1.7A3.6,3.6,0,0,0,167.979,222.868Z" transform="translate(-152.71 -202.051)" fill="#3170b1"/>
  <path id="Path_22886" data-name="Path 22886" d="M37.746,30.988l-7.076-6.52a1.059,1.059,0,0,0-1.454,0L26.023,27.41a9.593,9.593,0,0,0-5.54-1.789h-.372V24a9.335,9.335,0,0,0,3.651-6.39h.445a3.488,3.488,0,0,0,3.352-3.6,3.715,3.715,0,0,0-1.139-2.7,12.349,12.349,0,0,0-3.275-7.816,10.625,10.625,0,0,0-15.75,0,12.349,12.349,0,0,0-3.275,7.816,3.715,3.715,0,0,0-1.139,2.7,3.488,3.488,0,0,0,3.352,3.6h.445A9.335,9.335,0,0,0,10.428,24v1.616h-.372C4.511,25.621,0,30.47,0,36.43v3.363a1.161,1.161,0,0,0,1.117,1.2H35.156a1.161,1.161,0,0,0,1.117-1.2v-7l.018.016a1.067,1.067,0,0,0,.727.289,1.084,1.084,0,0,0,.849-.419A1.264,1.264,0,0,0,37.746,30.988ZM24.207,15.212h-.372v-2.4h.372a1.2,1.2,0,0,1,0,2.4ZM15.269,2.4a9.181,9.181,0,0,1,8.81,8.006H20.09A4.229,4.229,0,0,1,16.268,7.87a1.084,1.084,0,0,0-2,0,4.229,4.229,0,0,1-3.821,2.539H6.459A9.181,9.181,0,0,1,15.269,2.4ZM5.214,14.011a1.163,1.163,0,0,1,1.117-1.2H6.7v2.4H6.331A1.163,1.163,0,0,1,5.214,14.011Zm3.724,2.4v-3.6h1.51a6.276,6.276,0,0,0,4.821-2.291A6.276,6.276,0,0,0,20.09,12.81H21.6v3.6a6.589,6.589,0,0,1-6.331,6.806,6.589,6.589,0,0,1-6.331-6.806Zm6.331,9.207a7.992,7.992,0,0,0,2.607-.437v2.438a2.713,2.713,0,0,1-2.607,2.8,2.713,2.713,0,0,1-2.607-2.8V25.184A7.99,7.99,0,0,0,15.269,25.621ZM2.234,36.43c0-4.636,3.508-8.407,7.821-8.407h.388a5.005,5.005,0,0,0,4.826,4.8,5.005,5.005,0,0,0,4.826-4.8h.388a7.314,7.314,0,0,1,3.757,1.03l-2.1,1.935a1.264,1.264,0,0,0-.121,1.693,1.064,1.064,0,0,0,1.575.13l.018-.016v5.8H8.193V35.629a1.161,1.161,0,0,0-1.117-1.2,1.161,1.161,0,0,0-1.117,1.2v2.962H2.234Zm31.8,2.162H31.06v-2a1.12,1.12,0,1,0-2.235,0v2H25.846V30.737l4.1-3.775,4.1,3.775Z" transform="translate(0 0)" fill="#3170b1"/>
  <path id="Path_22887" data-name="Path 22887" d="M377,383.2a1.161,1.161,0,0,0,1.117,1.2h1.49a1.2,1.2,0,0,0,0-2.4h-1.49A1.161,1.161,0,0,0,377,383.2Z" transform="translate(-348.919 -351.415)" fill="#3170b1"/>
</svg>
