<svg xmlns="http://www.w3.org/2000/svg" width="38.683" height="38.683" viewBox="0 0 38.683 38.683">
  <g id="rate" transform="translate(0.5 0.5)">
    <path id="Path_22991" data-name="Path 22991" d="M18.842,37.683A18.842,18.842,0,0,1,5.519,5.518,18.842,18.842,0,0,1,32.165,32.165a18.718,18.718,0,0,1-13.323,5.519Zm0-35.328A16.486,16.486,0,1,0,35.328,18.842,16.505,16.505,0,0,0,18.842,2.355Z" transform="translate(0 0)" fill="#3170b1" stroke="#3170b1" stroke-width="1"/>
    <path id="Path_22992" data-name="Path 22992" d="M189.39,106.779a2.994,2.994,0,1,1,2.994-2.994,1.2,1.2,0,1,0,2.4,0,5.4,5.4,0,0,0-4.192-5.254V97.2a1.2,1.2,0,1,0-2.4,0v1.333a5.389,5.389,0,0,0,1.2,10.644,2.994,2.994,0,1,1-2.994,2.994,1.2,1.2,0,1,0-2.4,0,5.4,5.4,0,0,0,4.192,5.254v1.333a1.2,1.2,0,0,0,2.4,0v-1.333a5.389,5.389,0,0,0-1.2-10.644Z" transform="translate(-170.226 -88.814)" fill="#3170b1" stroke="#3170b1" stroke-width="1"/>
  </g>
</svg>
