<svg xmlns="http://www.w3.org/2000/svg" width="28.858" height="37.533" viewBox="0 0 28.858 37.533">
  <g id="workers" transform="translate(-4.7 -1.608)">
    <line id="Line_51" data-name="Line 51" x2="21.433" transform="translate(8.41 14.503)" fill="none" stroke="#3170b1" stroke-linecap="round" stroke-linejoin="round" stroke-miterlimit="10" stroke-width="2.6"/>
    <path id="Path_23006" data-name="Path 23006" d="M13.816,9.442,12.3,4.137h0a10.175,10.175,0,0,1,9.347,0h0L20.131,9.442" transform="translate(2.133)" fill="none" stroke="#3170b1" stroke-linecap="round" stroke-linejoin="round" stroke-miterlimit="10" stroke-width="2.6"/>
    <path id="Path_23007" data-name="Path 23007" d="M19.5,4.9a8.646,8.646,0,0,1,4.168,7.452v1.516" transform="translate(4.321 0.5)" fill="none" stroke="#3170b1" stroke-linecap="round" stroke-linejoin="round" stroke-miterlimit="10" stroke-width="2.6"/>
    <path id="Path_23008" data-name="Path 23008" d="M9.2,13.868V12.352A8.646,8.646,0,0,1,13.368,4.9" transform="translate(1.024 0.5)" fill="none" stroke="#3170b1" stroke-linecap="round" stroke-linejoin="round" stroke-miterlimit="10" stroke-width="2.6"/>
    <path id="Path_23009" data-name="Path 23009" d="M26.447,26.4a5.679,5.679,0,0,1-4.063-5.558,7.2,7.2,0,0,0,3.146-5.053A7.66,7.66,0,0,1,18.845,12H12.553v2.526a7.211,7.211,0,0,0,3.277,6.316h0A5.642,5.642,0,0,1,11.636,26.4,8.113,8.113,0,0,0,6,32.715a.716.716,0,0,0,.655.758H31.689a.559.559,0,0,0,.524-.758A8.079,8.079,0,0,0,26.447,26.4Z" transform="translate(0 4.368)" fill="none" stroke="#3170b1" stroke-linejoin="round" stroke-miterlimit="10" stroke-width="2.6"/>
  </g>
</svg>
